<?xml version="1.0" encoding="utf-8"?>
<!-- Generator: Adobe Illustrator 16.0.0, SVG Export Plug-In . SVG Version: 6.00 Build 0)  -->
<!DOCTYPE svg PUBLIC "-//W3C//DTD SVG 1.1//EN" "http://www.w3.org/Graphics/SVG/1.1/DTD/svg11.dtd">
<svg version="1.1" id="Layer_1" xmlns="http://www.w3.org/2000/svg" xmlns:xlink="http://www.w3.org/1999/xlink" x="0px" y="0px"
	 width="512px" height="512px" viewBox="0 0 512 512" enable-background="new 0 0 512 512" xml:space="preserve">
<path id="speech-bubble-13-icon" fill="#FFFFFF" d="M50.984,393.104c14.959-29.754,31.564-70.596,30.713-99.07
	c-20.151-24.301-31.536-55.616-31.536-87.512c0-89.926,87.238-155.675,184.908-155.675c97.063,0,184.909,65.255,184.909,155.675
	c0,94.152-103.73,182.084-246.055,147.132C148.075,369.633,91.077,385.79,50.984,393.104z M440.434,393.909
	c27.171-32.763,29.944-81.761-0.181-118.854c-31.005,69.842-107.467,122.041-205.609,121.405
	c28.479,33.434,80.275,53.367,143.192,37.916c17.544,10.847,56.23,21.812,83.443,26.776
	C451.127,440.959,439.856,413.237,440.434,393.909z"/>
</svg>
