<?xml version="1.0" encoding="utf-8"?>
<!-- Generator: Adobe Illustrator 16.0.0, SVG Export Plug-In . SVG Version: 6.00 Build 0)  -->
<!DOCTYPE svg PUBLIC "-//W3C//DTD SVG 1.1//EN" "http://www.w3.org/Graphics/SVG/1.1/DTD/svg11.dtd">
<svg version="1.1" id="Layer_1" xmlns="http://www.w3.org/2000/svg" xmlns:xlink="http://www.w3.org/1999/xlink" x="0px" y="0px"
	 width="121.06px" height="193.41px" viewBox="0 0 121.06 193.41" enable-background="new 0 0 121.06 193.41" xml:space="preserve">
<path id="path4429" fill="#FFFFFF" d="M67.92,0C32.541,0,13.4,22.4,13.4,47.41c0,19.04,13.641,40.52,41.779,40.52h7.121
	c0,0-1.94,4.71-1.951,9.26c0,6.71,2.41,10.48,7.53,16.281C19.46,116.419,0,135.951,0,156.939c0,18.381,17.6,36.471,54.59,36.471
	c43.79,0,66.47-24.311,66.47-48.17c0-16.82-8.38-26.039-29.6-41.939c-6.24-4.85-7.45-7.94-7.45-11.57c0-5.2,3.11-8.641,4.25-9.94
	c2.01-2.12,5.49-4.54,6.79-5.7c7.13-6.04,17.2-14.979,17.2-32.82c0-12.24-5.09-22.77-16.69-32.63h14.16L120.359,0H67.93H67.92z
	 M58.16,7.96c6.42,0,11.78,2.27,17.44,6.98c6.28,5.66,16.31,20.87,16.31,39.69c0,20.31-15.779,25.87-24.319,25.87
	c-4.181,0-9.19-1.17-13.431-4.07c-9.42-6.109-18.77-22.37-18.77-41.72C35.391,17.25,45.791,7.96,58.16,7.96z M72.17,121.179
	c2.701,0,4.641,0.221,4.641,0.221s6.37,4.551,10.82,7.949c10.359,8.191,16.82,14.451,16.82,25.602c0,15.33-14.221,27.35-37.25,27.35
	c-25.28,0-44.601-11.77-44.601-30.99C22.601,135.39,35.841,121.689,72.17,121.179L72.17,121.179z"/>
</svg>
