<?xml version="1.0" encoding="utf-8"?>
<!-- Generator: Adobe Illustrator 16.0.0, SVG Export Plug-In . SVG Version: 6.00 Build 0)  -->
<!DOCTYPE svg PUBLIC "-//W3C//DTD SVG 1.1//EN" "http://www.w3.org/Graphics/SVG/1.1/DTD/svg11.dtd">
<svg version="1.1" xmlns="http://www.w3.org/2000/svg" xmlns:xlink="http://www.w3.org/1999/xlink" x="0px" y="0px"
	 width="336.818px" height="45.65px" viewBox="0 0 336.818 45.65" enable-background="new 0 0 336.818 45.65" xml:space="preserve">
<g id="Layer_1">
	<g>
		<g>
			<path fill-rule="evenodd" clip-rule="evenodd" fill="#FFFFFF" d="M8.71,21.736h21.775v-4.354H8.71V21.736z M0,10.849v4.355
				h30.485v-4.355H0z M2.177,28.269h28.308v-4.354H2.177V28.269z M15.243,34.801h15.243v-4.355H15.243V34.801z"/>
		</g>
	</g>
	<g>
		<g>
			<path fill-rule="evenodd" clip-rule="evenodd" fill="#FFFFFF" d="M328.107,17.381h-21.776v4.354h21.776V17.381z M306.331,10.849
				v4.355h30.487v-4.355H306.331z M306.331,28.269h28.31v-4.354h-28.31V28.269z M306.331,34.801h15.243v-4.355h-15.243V34.801z"/>
		</g>
	</g>
</g>
<g id="Layer_2">
	<g>
		<path fill="#FFFFFF" d="M68.785,17.175c-0.2,0.317-0.412,0.542-0.638,0.675c-0.226,0.134-0.513,0.2-0.862,0.2
			c-0.367,0-0.734-0.079-1.1-0.237c-0.367-0.158-0.764-0.329-1.188-0.513c-0.425-0.183-0.904-0.354-1.438-0.513
			c-0.534-0.158-1.142-0.237-1.825-0.237c-0.983,0-1.737,0.188-2.263,0.563c-0.524,0.375-0.787,0.896-0.787,1.563
			c0,0.483,0.171,0.884,0.513,1.2c0.341,0.316,0.795,0.596,1.362,0.837c0.566,0.242,1.208,0.471,1.925,0.688
			c0.717,0.217,1.45,0.458,2.2,0.725s1.482,0.579,2.199,0.938s1.358,0.8,1.926,1.325c0.566,0.525,1.02,1.163,1.361,1.913
			s0.514,1.65,0.514,2.7c0,1.283-0.234,2.467-0.701,3.55c-0.467,1.083-1.162,2.017-2.087,2.8c-0.925,0.784-2.067,1.392-3.425,1.825
			c-1.358,0.433-2.921,0.65-4.688,0.65c-0.884,0-1.767-0.083-2.649-0.25c-0.884-0.167-1.738-0.391-2.563-0.675
			c-0.825-0.283-1.588-0.621-2.288-1.013c-0.7-0.391-1.3-0.813-1.8-1.262l1.8-2.85c0.2-0.333,0.454-0.596,0.763-0.788
			c0.309-0.191,0.704-0.288,1.188-0.288c0.45,0,0.854,0.1,1.213,0.3c0.357,0.2,0.745,0.417,1.162,0.65
			c0.416,0.233,0.904,0.45,1.463,0.65c0.558,0.2,1.262,0.3,2.112,0.3c0.6,0,1.108-0.063,1.524-0.188c0.417-0.125,0.75-0.295,1-0.512
			c0.25-0.216,0.434-0.458,0.551-0.725c0.116-0.267,0.175-0.542,0.175-0.825c0-0.516-0.175-0.941-0.525-1.275
			c-0.35-0.333-0.809-0.621-1.375-0.862s-1.212-0.466-1.938-0.675c-0.725-0.208-1.462-0.445-2.212-0.712
			c-0.75-0.266-1.488-0.587-2.213-0.962s-1.371-0.85-1.938-1.425c-0.566-0.575-1.025-1.279-1.375-2.113
			c-0.35-0.833-0.525-1.841-0.525-3.025c0-1.1,0.213-2.146,0.638-3.138c0.425-0.991,1.063-1.862,1.913-2.612
			c0.85-0.75,1.916-1.346,3.199-1.788c1.283-0.441,2.783-0.663,4.5-0.663c0.934,0,1.838,0.084,2.713,0.25
			c0.874,0.167,1.695,0.4,2.462,0.7s1.467,0.654,2.1,1.063c0.634,0.409,1.191,0.854,1.676,1.337L68.785,17.175z"/>
		<path fill="#FFFFFF" d="M83.859,37.825c-1.232,0-2.32-0.179-3.262-0.538c-0.941-0.358-1.734-0.866-2.375-1.525
			c-0.643-0.658-1.129-1.454-1.463-2.387s-0.5-1.975-0.5-3.125v-13.4h-2.199c-0.4,0-0.742-0.129-1.025-0.387
			s-0.426-0.638-0.426-1.138V12.3l4.125-0.8l1.525-6.325c0.2-0.8,0.767-1.2,1.7-1.2h4.05v7.575h6.426v5.3H84.01v12.875
			c0,0.6,0.146,1.096,0.438,1.488S85.16,31.8,85.71,31.8c0.283,0,0.521-0.029,0.712-0.087c0.191-0.058,0.359-0.125,0.5-0.2
			c0.143-0.075,0.275-0.141,0.4-0.2s0.271-0.088,0.438-0.088c0.233,0,0.421,0.055,0.563,0.163c0.142,0.109,0.287,0.279,0.438,0.513
			l2.35,3.675c-1,0.75-2.125,1.313-3.375,1.688S85.193,37.825,83.859,37.825z"/>
		<path fill="#FFFFFF" d="M101.034,15.5c0.8-1.4,1.721-2.5,2.763-3.3c1.041-0.8,2.237-1.2,3.588-1.2c1.166,0,2.115,0.275,2.85,0.825
			l-0.5,5.7c-0.084,0.367-0.221,0.617-0.412,0.75c-0.192,0.133-0.455,0.2-0.788,0.2c-0.134,0-0.309-0.008-0.524-0.025
			c-0.217-0.016-0.442-0.038-0.676-0.063s-0.471-0.05-0.713-0.075c-0.241-0.025-0.462-0.038-0.662-0.038
			c-1.133,0-2.037,0.3-2.713,0.9c-0.674,0.6-1.246,1.434-1.712,2.5v15.75h-7.75V11.5h4.601c0.383,0,0.703,0.033,0.962,0.1
			c0.259,0.067,0.476,0.171,0.649,0.313c0.176,0.142,0.309,0.33,0.4,0.563c0.092,0.234,0.171,0.517,0.238,0.85L101.034,15.5z"/>
		<path fill="#FFFFFF" d="M118.784,25.85c0.25,2.167,0.908,3.738,1.976,4.713c1.066,0.975,2.441,1.462,4.125,1.462
			c0.899,0,1.674-0.108,2.324-0.325c0.65-0.216,1.229-0.458,1.738-0.725c0.508-0.266,0.975-0.508,1.399-0.725
			s0.87-0.325,1.337-0.325c0.617,0,1.084,0.225,1.4,0.675l2.25,2.775c-0.8,0.917-1.662,1.662-2.588,2.237
			c-0.924,0.575-1.875,1.025-2.85,1.35c-0.975,0.325-1.949,0.55-2.925,0.675s-1.904,0.188-2.788,0.188
			c-1.816,0-3.521-0.296-5.111-0.887c-1.592-0.592-2.984-1.471-4.176-2.638c-1.191-1.167-2.133-2.616-2.824-4.35
			c-0.692-1.733-1.038-3.75-1.038-6.05c0-1.733,0.296-3.375,0.888-4.925c0.592-1.55,1.441-2.908,2.55-4.075s2.45-2.091,4.024-2.775
			c1.576-0.684,3.354-1.025,5.338-1.025c1.717,0,3.287,0.267,4.713,0.8c1.425,0.534,2.65,1.309,3.675,2.325
			c1.024,1.017,1.825,2.263,2.399,3.738c0.576,1.475,0.863,3.146,0.863,5.012c0,0.584-0.025,1.059-0.075,1.425
			s-0.142,0.659-0.274,0.875c-0.135,0.217-0.313,0.367-0.538,0.45c-0.226,0.084-0.513,0.125-0.862,0.125H118.784z M128.534,21.35
			c0-0.616-0.079-1.216-0.237-1.8c-0.158-0.583-0.417-1.104-0.775-1.563c-0.358-0.458-0.829-0.829-1.412-1.112
			c-0.584-0.283-1.292-0.425-2.125-0.425c-1.467,0-2.617,0.421-3.45,1.263c-0.833,0.842-1.384,2.054-1.649,3.637H128.534z"/>
		<path fill="#FFFFFF" d="M138.783,15.1c1.566-1.383,3.305-2.412,5.213-3.087c1.908-0.675,3.953-1.012,6.137-1.012
			c1.566,0,2.979,0.254,4.238,0.762c1.258,0.509,2.325,1.217,3.2,2.125c0.875,0.909,1.545,1.988,2.012,3.238s0.7,2.617,0.7,4.1v16.2
			h-3.55c-0.733,0-1.287-0.1-1.662-0.3c-0.376-0.2-0.688-0.617-0.938-1.25l-0.549-1.425c-0.65,0.55-1.275,1.034-1.875,1.45
			c-0.601,0.417-1.222,0.771-1.863,1.063s-1.324,0.508-2.05,0.65s-1.529,0.212-2.413,0.212c-1.184,0-2.258-0.154-3.225-0.462
			S140.371,36.6,139.695,36c-0.674-0.6-1.195-1.346-1.563-2.238c-0.366-0.891-0.549-1.92-0.549-3.087
			c0-0.933,0.232-1.879,0.699-2.837s1.275-1.833,2.426-2.625c1.149-0.792,2.699-1.454,4.649-1.988c1.95-0.533,4.408-0.833,7.375-0.9
			v-1.1c0-1.516-0.313-2.612-0.938-3.287c-0.625-0.675-1.513-1.013-2.663-1.013c-0.916,0-1.666,0.1-2.25,0.3
			c-0.583,0.2-1.104,0.425-1.563,0.675c-0.458,0.25-0.904,0.475-1.337,0.675c-0.434,0.2-0.95,0.3-1.55,0.3
			c-0.533,0-0.984-0.133-1.35-0.4c-0.367-0.266-0.668-0.583-0.9-0.95L138.783,15.1z M152.733,26.875
			c-1.55,0.066-2.825,0.2-3.825,0.4c-1,0.2-1.791,0.45-2.375,0.75c-0.584,0.3-0.987,0.642-1.213,1.025
			c-0.225,0.384-0.337,0.8-0.337,1.25c0,0.884,0.241,1.504,0.726,1.862c0.482,0.359,1.191,0.538,2.125,0.538
			c1,0,1.875-0.175,2.625-0.525s1.508-0.917,2.274-1.7V26.875z"/>
		<path fill="#FFFFFF" d="M165.232,37.425V11.5h4.8c0.967,0,1.601,0.434,1.9,1.3l0.425,1.4c0.434-0.45,0.883-0.862,1.35-1.237
			s0.971-0.7,1.513-0.975s1.125-0.491,1.75-0.65c0.625-0.158,1.313-0.238,2.063-0.238c1.566,0,2.862,0.404,3.888,1.213
			s1.804,1.887,2.338,3.237c0.433-0.8,0.962-1.483,1.587-2.05s1.3-1.025,2.025-1.375c0.725-0.35,1.491-0.608,2.3-0.775
			c0.809-0.166,1.612-0.25,2.412-0.25c1.483,0,2.801,0.221,3.95,0.663c1.15,0.442,2.112,1.083,2.888,1.925s1.362,1.875,1.763,3.1
			c0.399,1.225,0.6,2.613,0.6,4.163v16.475h-7.75V20.95c0-2.683-1.149-4.025-3.45-4.025c-1.05,0-1.921,0.346-2.612,1.038
			c-0.691,0.692-1.037,1.688-1.037,2.987v16.475h-7.75V20.95c0-1.483-0.292-2.525-0.875-3.125c-0.584-0.6-1.442-0.9-2.575-0.9
			c-0.7,0-1.362,0.159-1.987,0.475c-0.625,0.317-1.213,0.742-1.763,1.275v18.75H165.232z"/>
		<path fill="#FFFFFF" d="M215.058,14.7c1.016-1.083,2.17-1.971,3.462-2.663c1.292-0.691,2.829-1.037,4.612-1.037
			c1.351,0,2.601,0.3,3.75,0.9c1.15,0.6,2.142,1.467,2.976,2.6c0.833,1.133,1.487,2.521,1.962,4.162
			c0.476,1.642,0.713,3.504,0.713,5.588c0,1.95-0.271,3.75-0.813,5.4c-0.542,1.65-1.3,3.083-2.275,4.3
			c-0.975,1.217-2.142,2.167-3.5,2.85s-2.862,1.025-4.512,1.025c-1.351,0-2.484-0.192-3.4-0.575c-0.917-0.383-1.75-0.9-2.5-1.55
			v9.95h-7.75V11.5h4.8c0.967,0,1.601,0.434,1.9,1.3L215.058,14.7z M215.532,30.375c0.583,0.633,1.217,1.083,1.9,1.35
			c0.683,0.267,1.399,0.4,2.149,0.4c0.717,0,1.375-0.142,1.976-0.425c0.6-0.283,1.12-0.737,1.563-1.362
			c0.441-0.625,0.787-1.438,1.037-2.438s0.375-2.216,0.375-3.65c0-1.367-0.1-2.517-0.3-3.45c-0.2-0.933-0.479-1.688-0.838-2.263
			c-0.358-0.575-0.787-0.987-1.287-1.237s-1.059-0.375-1.675-0.375c-1.134,0-2.067,0.208-2.801,0.625
			c-0.733,0.417-1.434,1.025-2.1,1.825V30.375z"/>
		<path fill="#FFFFFF" d="M248.482,11.1c1.966,0,3.758,0.309,5.375,0.925c1.616,0.617,3.004,1.5,4.162,2.65s2.059,2.546,2.7,4.188
			s0.963,3.487,0.963,5.538c0,2.067-0.321,3.929-0.963,5.587c-0.642,1.659-1.542,3.067-2.7,4.225
			c-1.158,1.159-2.546,2.05-4.162,2.675c-1.617,0.625-3.409,0.938-5.375,0.938c-1.983,0-3.788-0.313-5.413-0.938
			s-3.024-1.516-4.199-2.675c-1.176-1.158-2.084-2.566-2.726-4.225c-0.642-1.658-0.962-3.521-0.962-5.587
			c0-2.05,0.32-3.896,0.962-5.538s1.55-3.038,2.726-4.188c1.175-1.15,2.574-2.033,4.199-2.65S246.499,11.1,248.482,11.1z
			 M248.482,32.075c1.783,0,3.096-0.629,3.938-1.887c0.841-1.258,1.263-3.171,1.263-5.738c0-2.566-0.422-4.475-1.263-5.725
			c-0.842-1.25-2.154-1.875-3.938-1.875c-1.834,0-3.175,0.625-4.025,1.875c-0.85,1.25-1.274,3.159-1.274,5.725
			c0,2.567,0.425,4.479,1.274,5.738C245.308,31.446,246.648,32.075,248.482,32.075z"/>
		<path fill="#FFFFFF" d="M273.331,0v37.425h-7.749V0H273.331z"/>
		<path fill="#FFFFFF" d="M286.331,0v37.425h-7.75V0H286.331z"/>
	</g>
</g>
</svg>
